<?xml version="1.0" standalone="no"?>
<!DOCTYPE svg PUBLIC "-//W3C//DTD SVG 20010904//EN"
 "http://www.w3.org/TR/2001/REC-SVG-20010904/DTD/svg10.dtd">
<svg version="1.0" xmlns="http://www.w3.org/2000/svg"
 width="800.000000pt" height="800.000000pt" viewBox="0 0 800.000000 800.000000"
 preserveAspectRatio="xMidYMid meet">
<metadata>
Created by potrace 1.14, written by Peter Selinger 2001-2017
</metadata>
<g transform="translate(0.000000,800.000000) scale(0.100000,-0.100000)"
fill="#000000" stroke="none">
<path d="M1120 7990 c-226 -8 -308 -18 -428 -50 -231 -63 -459 -255 -576 -486
-47 -92 -82 -231 -98 -391 -19 -188 -19 -5938 0 -6126 28 -279 100 -448 261
-619 174 -186 359 -270 658 -300 188 -19 5938 -19 6126 0 279 28 448 100 619
261 186 174 270 359 300 658 19 188 19 5938 0 6126 -28 279 -100 448 -261 619
-169 180 -354 267 -637 299 -84 9 -767 13 -2929 14 -1551 1 -2917 -1 -3035 -5z
m3816 -1412 c43 -23 81 -71 94 -116 5 -20 10 -88 10 -149 l0 -113 180 0 c218
0 268 -9 319 -58 30 -29 41 -49 50 -92 18 -86 10 -4061 -8 -4115 -17 -53 -54
-91 -110 -112 -43 -17 -133 -18 -1481 -18 l-1436 0 -49 25 c-76 39 -96 86
-103 245 l-5 125 -187 0 c-137 0 -200 4 -237 15 -66 20 -107 66 -123 137 -8
39 -10 589 -8 2083 l3 2030 24 42 c23 39 57 63 121 86 8 3 668 5 1465 4 1349
-2 1452 -3 1481 -19z"/>
<path d="M2668 2193 c6 -2 18 -2 25 0 6 3 1 5 -13 5 -14 0 -19 -2 -12 -5z"/>
<path d="M2808 2193 c6 -2 18 -2 25 0 6 3 1 5 -13 5 -14 0 -19 -2 -12 -5z"/>
<path d="M2978 2193 c7 -3 16 -2 19 1 4 3 -2 6 -13 5 -11 0 -14 -3 -6 -6z"/>
<path d="M4573 2193 c9 -2 23 -2 30 0 6 3 -1 5 -18 5 -16 0 -22 -2 -12 -5z"/>
</g>
</svg>
